<?xml version="1.0" encoding="utf-8"?>
<!-- Generator: Adobe Illustrator 24.1.0, SVG Export Plug-In . SVG Version: 6.00 Build 0)  -->
<svg version="1.1" id="Layer_1" xmlns="http://www.w3.org/2000/svg" xmlns:xlink="http://www.w3.org/1999/xlink" x="0px" y="0px"
	 viewBox="0 0 98.8 36.1" style="enable-background:new 0 0 98.8 36.1;" xml:space="preserve">
<style type="text/css">
	.st0{fill:#FAFBFB;}
	.st1{fill-rule:evenodd;clip-rule:evenodd;fill:#FAFBFB;}
</style>
<g id="Group_5" transform="translate(0.892 17.948)">
	<g id="Group_4">
		<g id="Group_3">
			<g id="Group_2">
				<path id="Path_1" class="st0" d="M41,1.3c-1,0-1.4,0.8-1.6,1.7c-0.1,1-0.7,4.6-0.8,5.6c-0.1,0.5-0.1,1.1-0.7,1.4
					s-1.2-0.1-1.7-0.6l-8.8-7.4c-0.5-0.4-1-0.6-1.6-0.6c-1.3-0.1-2.4,1-2.5,2.3c0,0.1,0,0.2,0,0.4v11.6c0,0.8,0.5,1.4,1.3,1.5
					c0,0,0.1,0,0.1,0c0.8,0,1.5-0.6,1.5-1.4c0,0,0.9-5.5,1-6.1c0.1-0.7,0.2-1.3,0.9-1.5c0.6-0.2,1.2,0.2,2.1,0.9s8.3,7.4,8.3,7.4
					c0.5,0.5,1.1,0.7,1.8,0.7c0.7,0,2.1-0.3,2.1-2.5V2.9c0.1-0.8-0.5-1.6-1.3-1.6C41.2,1.3,41.1,1.3,41,1.3z"/>
				<path id="Path_2" class="st0" d="M94.2,13.6C87.8,15,80.3,13.5,80.3,9c0-3.4,3.2-4.8,5.7-5c2.7-0.2,4.7,0.3,5.8,1.4
					c0.7,0.7,0.5,1.6-0.8,1.7c-1.2,0.1-3.5,0.1-5.4,0.2c-1.1,0-1.6,0.6-1.6,1.4c0,0.6,0.5,1.3,1.7,1.3c1.8,0,6.2,0,8.5,0
					c1.5,0,2.2-0.8,2.2-2.5c0-2.6-2.4-6.7-9.5-6.7c-6.4,0-11.1,3.2-11.1,8.3c0,7.3,10.9,9.6,18.9,6.8c0.8-0.3,1.4-0.8,1.2-1.6
					C95.8,13.7,95.2,13.4,94.2,13.6z"/>
				<path id="Path_3" class="st0" d="M19.1,13.6C12.6,15,5.2,13.5,5.2,9c0-3.4,3.2-4.8,5.7-5c2.7-0.2,4.7,0.3,5.8,1.4
					c0.7,0.7,0.5,1.6-0.8,1.7c-1.2,0.1-3.5,0.1-5.4,0.2c-1.1,0-1.6,0.6-1.6,1.4c0,0.6,0.5,1.3,1.7,1.3c1.8,0,6.2,0,8.5,0
					c1.5,0,2.2-0.8,2.2-2.5c0-2.6-2.4-6.7-9.5-6.7C5.3,0.9,0.6,4.1,0.6,9.2c0,7.3,10.9,9.6,18.9,6.8c0.8-0.3,1.4-0.8,1.2-1.6
					C20.6,13.7,20,13.4,19.1,13.6z"/>
				<g id="Group_1" transform="translate(68.484)">
					<path id="Path_4" class="st0" d="M0.8,6.6c0.1,4,0.5,7.3,0.6,8.5C1.5,16.6,2.3,17,3.1,17c0.8,0,1.6-0.4,1.7-1.9
						c0.1-1.3,0.5-5.2,0.7-9.2c0-0.1-0.1-0.2-0.2-0.3c0,0-0.1,0-0.1,0L1,6.3C0.9,6.3,0.8,6.5,0.8,6.6z"/>
					<path id="Path_5" class="st0" d="M3.1,0.9C1.8,0.8,0.7,1.8,0.6,3c0,0.1,0,0.2,0,0.3c0,0.2,0,0.6,0,1.2c0,0.1,0.1,0.2,0.3,0.2
						c0,0,0,0,0,0l4.4-0.7c0.1,0,0.2-0.1,0.2-0.2c0-0.2,0-0.4,0-0.5c0-1.3-1-2.4-2.3-2.4C3.3,0.9,3.2,0.9,3.1,0.9z"/>
				</g>
				<path id="Path_6" class="st0" d="M65.1,7.3c-1.5,0-6,0-8.9,0c-1.4,0-1.8,0.7-1.8,1.4c0,0.5,0.4,1.2,1.7,1.3
					c2,0.1,4.5,0.2,5.7,0.3c1.6,0.1,1.6,0.9,1.1,1.6c-1.1,1.4-3.7,2.3-6.4,2.3c-3.5,0-7.4-2-7.4-5.1c0-3,3.3-6.2,13.2-4.8
					c0.9,0.1,1.7,0,1.9-0.8c0.2-0.8-0.3-1.4-1.5-1.7c-2-0.5-4.1-0.8-6.2-0.7c-6.7,0-12,3.1-12,8.2c0,5.4,5.3,8.1,12,8.1
					c7.4,0,11-4,11-7.5c0.2-1.2-0.6-2.3-1.8-2.5C65.6,7.2,65.4,7.2,65.1,7.3z"/>
			</g>
		</g>
	</g>
</g>
<g id="Group_7" transform="translate(0)">
	<g id="Group_6">
		<path id="Path_7" class="st1" d="M0.6,14.7C13.7,6.1,30.8,0.9,49.4,0.9s35.7,5.2,48.8,13.8c-13-4.3-28.2-6.9-48.8-6.9
			S13.6,10.5,0.6,14.7z"/>
	</g>
</g>
</svg>
