<?xml version="1.0" encoding="utf-8"?>
<!-- Generator: Adobe Illustrator 24.1.0, SVG Export Plug-In . SVG Version: 6.00 Build 0)  -->
<svg version="1.1" id="Layer_1" xmlns="http://www.w3.org/2000/svg" xmlns:xlink="http://www.w3.org/1999/xlink" x="0px" y="0px"
	 viewBox="0 0 113.9 114" style="enable-background:new 0 0 113.9 114;" xml:space="preserve">
<style type="text/css">
	.st0{fill:#FAFBFB;}
</style>
<g id="icon-chat" transform="translate(1069 1548)">
	<path id="Path_71" class="st0" d="M-958-1501.3c0-0.1,0-0.1,0-0.2c-0.1-0.3-0.1-0.7-0.2-1.1c0-0.1-0.1-0.2-0.1-0.3
		c-0.1-0.3-0.1-0.6-0.2-0.9c0-0.1-0.1-0.3-0.1-0.4c-0.1-0.3-0.1-0.5-0.2-0.8c0-0.2-0.1-0.3-0.1-0.5c-0.1-0.3-0.1-0.5-0.2-0.7
		c0-0.2-0.1-0.4-0.2-0.6c-0.1-0.2-0.1-0.5-0.2-0.7c-0.1-0.2-0.1-0.4-0.2-0.6c-0.1-0.2-0.1-0.4-0.2-0.7c-0.1-0.2-0.1-0.4-0.2-0.6
		c-0.1-0.2-0.2-0.5-0.2-0.7l-0.2-0.6c-0.1-0.3-0.2-0.5-0.3-0.7c-0.1-0.2-0.1-0.3-0.2-0.5c-0.1-0.3-0.2-0.6-0.3-0.9l-0.1-0.4
		c-0.1-0.3-0.3-0.7-0.4-1c0-0.1,0-0.1-0.1-0.2c-5-11.2-13.5-20.5-24.3-26.2c-0.1,0-0.2-0.1-0.3-0.1c-0.3-0.1-0.6-0.3-0.8-0.4
		c-0.2-0.1-0.4-0.2-0.6-0.3l-0.6-0.3c-0.3-0.1-0.5-0.3-0.8-0.4c-0.1-0.1-0.2-0.1-0.3-0.2c-0.3-0.1-0.7-0.3-1-0.4
		c-0.1,0-0.1-0.1-0.2-0.1c-0.4-0.2-0.7-0.3-1.1-0.5c0,0-0.1,0-0.1,0c-0.4-0.2-0.8-0.3-1.2-0.5c0,0,0,0,0,0c-0.4-0.1-0.8-0.3-1.2-0.4
		h0c-0.4-0.1-0.8-0.3-1.3-0.4c0,0,0,0,0,0c-0.4-0.1-0.8-0.3-1.2-0.4c0,0-0.1,0-0.1,0c-0.4-0.1-0.8-0.2-1.2-0.3c0,0-0.1,0-0.2,0
		c-0.4-0.1-0.7-0.2-1.1-0.3c-0.1,0-0.2-0.1-0.3-0.1c-0.3-0.1-0.6-0.1-1-0.2c-0.1,0-0.3-0.1-0.4-0.1c-0.3-0.1-0.6-0.1-0.9-0.2
		c-0.2,0-0.3-0.1-0.5-0.1l-0.8-0.1c-0.2,0-0.4-0.1-0.6-0.1c-0.2,0-0.4-0.1-0.6-0.1c-0.2,0-0.5-0.1-0.7-0.1c-0.2,0-0.4-0.1-0.5-0.1
		c-0.3,0-0.6-0.1-0.8-0.1c-0.1,0-0.3,0-0.4-0.1l-0.9-0.1c-0.1,0-0.3,0-0.4,0l-1-0.1c-0.1,0-0.2,0-0.3,0c-0.4,0-0.7,0-1-0.1h-1.4
		c-14.6,0-28.6,5.8-38.9,16.2c-4.4,4.3-8,9.4-10.6,15l-0.1,0.3c-0.1,0.3-0.3,0.5-0.4,0.8c-0.1,0.2-0.2,0.4-0.3,0.6
		c-0.1,0.1-0.1,0.3-0.2,0.4c-0.1,0.3-0.3,0.7-0.4,0.9c0,0,0,0.1,0,0.1c-2.7,6.6-4,13.6-4,20.7c0,1.2,0.1,2.4,0.1,3.7v0.1
		c0,0.4,0.1,0.8,0.1,1.1c0,0,0,0.1,0,0.1c0,0.4,0.1,0.7,0.1,1.1c0,0,0,0.1,0,0.1c0.1,0.4,0.1,0.8,0.1,1.1v0c0.2,1.9,0.6,3.8,1.1,5.7
		c0,0.1,0.1,0.3,0.1,0.4c0,0.2,0.1,0.4,0.2,0.6c0.1,0.2,0.1,0.5,0.2,0.7c0.1,0.1,0.1,0.3,0.1,0.4c0.1,0.3,0.2,0.6,0.3,0.9
		c0,0.1,0.1,0.2,0.1,0.2c0.1,0.4,0.2,0.7,0.4,1.1c0,0,0,0,0,0.1c2.1,6.3,5.4,12.2,9.7,17.4c-1.8,3.6-4.6,7.7-8.8,9.8
		c-2.5,1.3-3.6,4.4-2.3,6.9c0.7,1.5,2.2,2.6,3.8,2.8c1.4,0.2,2.9,0.3,4.4,0.3c7,0,13.7-2.3,19.3-6.4c3.3,1.8,6.7,3.2,10.3,4.2h0
		c0.5,0.2,1,0.3,1.6,0.4c0,0,0,0,0.1,0c0.2,0.1,0.5,0.1,0.7,0.2c0.1,0,0.3,0.1,0.4,0.1c0.3,0.1,0.6,0.2,1,0.2
		c0.2,0.1,0.4,0.1,0.6,0.1c0.2,0.1,0.3,0.1,0.5,0.1c0.3,0.1,0.7,0.1,1,0.2c0.1,0,0.3,0,0.4,0.1c0.3,0.1,0.7,0.1,1,0.2
		c0,0,0.1,0,0.1,0c0.4,0.1,0.8,0.1,1.3,0.2c0.1,0,0.1,0,0.2,0l1.3,0.1h0.1c0.9,0.1,1.8,0.2,2.7,0.2h0c0.5,0,0.9,0.1,1.4,0.1h0.1
		c0.4,0,0.9,0,1.3,0h0c0.4,0,0.7,0,1.1,0h0.2c17.4-0.4,33.7-9,43.7-23.3c0.1-0.1,0.1-0.2,0.2-0.3c0.2-0.3,0.3-0.5,0.5-0.8
		c0.2-0.3,0.3-0.5,0.5-0.8c0.1-0.1,0.1-0.2,0.2-0.3c3.6-5.6,6.2-11.9,7.5-18.5c0,0,0-0.1,0-0.1c0.1-0.3,0.1-0.7,0.2-1.1
		c0-0.1,0-0.2,0.1-0.3c0-0.3,0.1-0.5,0.1-0.8c0-0.2,0.1-0.4,0.1-0.6c0-0.2,0-0.3,0.1-0.5c0-0.3,0.1-0.6,0.1-0.9c0-0.1,0-0.1,0-0.2
		c0.3-2.2,0.4-4.4,0.4-6.7C-957.2-1495-957.5-1498.2-958-1501.3z M-1031.4-1487.6c-2.1,0-3.9-1.7-3.9-3.9c0-2.1,1.7-3.9,3.9-3.9
		c2.1,0,3.9,1.7,3.9,3.9l0,0C-1027.5-1489.4-1029.3-1487.6-1031.4-1487.6z M-1011.6-1487.6c-2.2,0-3.9-1.7-3.9-3.9
		c0-2.1,1.7-3.9,3.9-3.9c2.1,0,3.9,1.7,3.9,3.9l0,0C-1007.7-1489.4-1009.4-1487.6-1011.6-1487.6L-1011.6-1487.6z M-991.7-1487.6
		c-2.2,0-3.9-1.7-3.9-3.9c0-2.1,1.7-3.9,3.9-3.9s3.9,1.7,3.9,3.9l0,0C-987.8-1489.4-989.6-1487.6-991.7-1487.6L-991.7-1487.6z"/>
</g>
</svg>
