<?xml version="1.0" encoding="utf-8"?>
<!-- Generator: Adobe Illustrator 24.1.0, SVG Export Plug-In . SVG Version: 6.00 Build 0)  -->
<svg version="1.1" id="Layer_1" xmlns="http://www.w3.org/2000/svg" xmlns:xlink="http://www.w3.org/1999/xlink" x="0px" y="0px"
	 viewBox="0 0 122 122.1" style="enable-background:new 0 0 122 122.1;" xml:space="preserve">
<style type="text/css">
	.st0{fill:#FFFFFF;}
</style>
<g id="icon-light" transform="translate(32 32)">
	<path id="Path_19" class="st0" d="M70.4,66L60.4,56c-0.7-0.7-1.5-1-2.5-1c-0.9,0-1.8,0.4-2.5,1c-1.3,1.3-1.3,3.5-0.1,4.8l0.1,0.1
		L65.5,71c1.4,1.3,3.6,1.3,4.9,0C71.7,69.6,71.8,67.5,70.4,66L70.4,66z"/>
	<path id="Path_20" class="st0" d="M83.3,24.8H69.4c-1.9,0-3.5,1.5-3.5,3.5c0,0,0,0,0,0c0,1.9,1.5,3.5,3.4,3.5h13.9
		c1.9,0,3.5-1.5,3.5-3.5v0C86.7,26.4,85.2,24.8,83.3,24.8z"/>
	<path id="Path_21" class="st0" d="M60.3,0.6L60.3,0.6L70.4-9.5c1.4-1.4,1.4-3.6,0-4.9l0,0c-0.7-0.7-1.5-1-2.5-1
		c-0.9,0-1.8,0.4-2.4,1l-0.1,0.1L55.4-4.4c-1.3,1.4-1.3,3.6,0,4.9C56.8,1.9,58.9,1.9,60.3,0.6z"/>
	<path id="Path_22" class="st0" d="M27.7-9.9c1.9,0,3.5-1.5,3.5-3.4v-13.9c0-1.9-1.5-3.5-3.5-3.5h0c-1.9,0-3.4,1.5-3.5,3.4v13.9
		C24.2-11.5,25.8-9.9,27.7-9.9C27.7-9.9,27.7-9.9,27.7-9.9z"/>
	<path id="Path_23" class="st0" d="M-15-9.5L-4.9,0.6c1.4,1.3,3.6,1.3,4.9,0c1.3-1.3,1.4-3.5,0.1-4.9L0-4.4l-10-10.1
		c-0.6-0.7-1.5-1-2.5-1c-0.9,0-1.8,0.4-2.5,1C-16.3-13.1-16.3-11-15-9.5L-15-9.5z"/>
	<path id="Path_24" class="st0" d="M-10.5,28.3c0-1.9-1.5-3.4-3.4-3.5h-13.9c-1.9,0-3.5,1.5-3.5,3.5c0,0,0,0,0,0
		c0,1.9,1.5,3.4,3.4,3.5H-14C-12,31.8-10.5,30.2-10.5,28.3C-10.5,28.3-10.5,28.3-10.5,28.3z"/>
	<path id="Path_25" class="st0" d="M-2.5,54.9c-0.9,0-1.8,0.3-2.4,1L-4.9,56L-15,66c-1.3,1.4-1.3,3.6,0,4.9c1.4,1.3,3.5,1.3,4.9,0.1
		l0.1-0.1L0,60.9c1.4-1.4,1.4-3.6,0-4.9l0,0C-0.7,55.3-1.5,55-2.5,54.9z"/>
	<path id="Path_26" class="st0" d="M27.7,66.4c-1.9,0-3.4,1.5-3.5,3.4v13.9c0,1.9,1.5,3.5,3.5,3.5c0,0,0,0,0,0
		c1.9,0,3.5-1.5,3.5-3.4V70C31.2,68,29.6,66.5,27.7,66.4L27.7,66.4z"/>
	<path id="Path_27" class="st0" d="M27.4-1C11.4-1-1.7,12-1.7,28.1l0,0c0,16.1,13,29.1,29.1,29.1s29.1-13,29.1-29.1
		C56.6,12,43.5-1,27.4-1L27.4-1z M2.5,28.1c0-13.6,11-24.7,24.6-24.9V53C13.5,52.8,2.5,41.7,2.5,28.1z"/>
</g>
</svg>
